<mxfile host="app.diagrams.net" modified="2023-08-03T19:03:04.761Z" agent="Mozilla/5.0 (Windows NT 10.0; Win64; x64) AppleWebKit/537.36 (KHTML, like Gecko) Chrome/115.0.0.0 Safari/537.36" etag="M59pGvqd4xrLL7WakQux" version="21.6.6" type="device">
  <diagram name="Page-1" id="NeaDTkHkr2q8ERynlGJ3">
    <mxGraphModel dx="1050" dy="534" grid="1" gridSize="10" guides="1" tooltips="1" connect="1" arrows="1" fold="1" page="1" pageScale="1" pageWidth="850" pageHeight="1100" math="0" shadow="0">
      <root>
        <mxCell id="0" />
        <mxCell id="1" parent="0" />
        <mxCell id="0UtFQ7yuSYxmiv--B6kW-1" value="Start" style="ellipse;whiteSpace=wrap;html=1;" vertex="1" parent="1">
          <mxGeometry x="30" y="20" width="120" height="80" as="geometry" />
        </mxCell>
        <mxCell id="0UtFQ7yuSYxmiv--B6kW-2" value="" style="endArrow=classic;html=1;rounded=0;exitX=0.5;exitY=1;exitDx=0;exitDy=0;" edge="1" parent="1" source="0UtFQ7yuSYxmiv--B6kW-1" target="0UtFQ7yuSYxmiv--B6kW-3">
          <mxGeometry width="50" height="50" relative="1" as="geometry">
            <mxPoint x="90" y="230" as="sourcePoint" />
            <mxPoint x="90" y="170" as="targetPoint" />
          </mxGeometry>
        </mxCell>
        <mxCell id="0UtFQ7yuSYxmiv--B6kW-24" style="edgeStyle=orthogonalEdgeStyle;rounded=0;orthogonalLoop=1;jettySize=auto;html=1;exitX=0.5;exitY=1;exitDx=0;exitDy=0;entryX=0.5;entryY=0;entryDx=0;entryDy=0;" edge="1" parent="1" source="0UtFQ7yuSYxmiv--B6kW-3" target="0UtFQ7yuSYxmiv--B6kW-6">
          <mxGeometry relative="1" as="geometry" />
        </mxCell>
        <mxCell id="0UtFQ7yuSYxmiv--B6kW-31" style="edgeStyle=orthogonalEdgeStyle;rounded=0;orthogonalLoop=1;jettySize=auto;html=1;exitX=1;exitY=0.5;exitDx=0;exitDy=0;" edge="1" parent="1" source="0UtFQ7yuSYxmiv--B6kW-3" target="0UtFQ7yuSYxmiv--B6kW-4">
          <mxGeometry relative="1" as="geometry" />
        </mxCell>
        <mxCell id="0UtFQ7yuSYxmiv--B6kW-3" value="User=Rock" style="rhombus;whiteSpace=wrap;html=1;" vertex="1" parent="1">
          <mxGeometry x="50" y="150" width="80" height="80" as="geometry" />
        </mxCell>
        <mxCell id="0UtFQ7yuSYxmiv--B6kW-32" style="edgeStyle=orthogonalEdgeStyle;rounded=0;orthogonalLoop=1;jettySize=auto;html=1;exitX=1;exitY=0.5;exitDx=0;exitDy=0;entryX=0;entryY=0.5;entryDx=0;entryDy=0;" edge="1" parent="1" source="0UtFQ7yuSYxmiv--B6kW-4" target="0UtFQ7yuSYxmiv--B6kW-5">
          <mxGeometry relative="1" as="geometry" />
        </mxCell>
        <mxCell id="0UtFQ7yuSYxmiv--B6kW-52" style="edgeStyle=orthogonalEdgeStyle;rounded=0;orthogonalLoop=1;jettySize=auto;html=1;exitX=1;exitY=1;exitDx=0;exitDy=0;entryX=0.5;entryY=0;entryDx=0;entryDy=0;" edge="1" parent="1" source="0UtFQ7yuSYxmiv--B6kW-4" target="0UtFQ7yuSYxmiv--B6kW-11">
          <mxGeometry relative="1" as="geometry" />
        </mxCell>
        <mxCell id="0UtFQ7yuSYxmiv--B6kW-4" value="User=Paper" style="rhombus;whiteSpace=wrap;html=1;" vertex="1" parent="1">
          <mxGeometry x="190" y="130" width="80" height="80" as="geometry" />
        </mxCell>
        <mxCell id="0UtFQ7yuSYxmiv--B6kW-35" style="edgeStyle=orthogonalEdgeStyle;rounded=0;orthogonalLoop=1;jettySize=auto;html=1;exitX=0;exitY=1;exitDx=0;exitDy=0;entryX=0.393;entryY=-0.12;entryDx=0;entryDy=0;entryPerimeter=0;" edge="1" parent="1" source="0UtFQ7yuSYxmiv--B6kW-5" target="0UtFQ7yuSYxmiv--B6kW-16">
          <mxGeometry relative="1" as="geometry" />
        </mxCell>
        <mxCell id="0UtFQ7yuSYxmiv--B6kW-38" style="edgeStyle=orthogonalEdgeStyle;rounded=0;orthogonalLoop=1;jettySize=auto;html=1;exitX=1;exitY=0.5;exitDx=0;exitDy=0;entryX=0.5;entryY=0;entryDx=0;entryDy=0;" edge="1" parent="1" source="0UtFQ7yuSYxmiv--B6kW-5" target="0UtFQ7yuSYxmiv--B6kW-17">
          <mxGeometry relative="1" as="geometry" />
        </mxCell>
        <mxCell id="0UtFQ7yuSYxmiv--B6kW-5" value="User=Scissor" style="rhombus;whiteSpace=wrap;html=1;" vertex="1" parent="1">
          <mxGeometry x="345" y="130" width="80" height="80" as="geometry" />
        </mxCell>
        <mxCell id="0UtFQ7yuSYxmiv--B6kW-25" style="edgeStyle=orthogonalEdgeStyle;rounded=0;orthogonalLoop=1;jettySize=auto;html=1;exitX=0;exitY=1;exitDx=0;exitDy=0;entryX=0.5;entryY=0;entryDx=0;entryDy=0;" edge="1" parent="1" source="0UtFQ7yuSYxmiv--B6kW-6" target="0UtFQ7yuSYxmiv--B6kW-8">
          <mxGeometry relative="1" as="geometry" />
        </mxCell>
        <mxCell id="0UtFQ7yuSYxmiv--B6kW-6" value="Computer=Rock" style="rhombus;whiteSpace=wrap;html=1;" vertex="1" parent="1">
          <mxGeometry x="45" y="250" width="90" height="90" as="geometry" />
        </mxCell>
        <mxCell id="0UtFQ7yuSYxmiv--B6kW-28" style="edgeStyle=orthogonalEdgeStyle;rounded=0;orthogonalLoop=1;jettySize=auto;html=1;exitX=0;exitY=0.5;exitDx=0;exitDy=0;entryX=0.393;entryY=0.013;entryDx=0;entryDy=0;entryPerimeter=0;" edge="1" parent="1" source="0UtFQ7yuSYxmiv--B6kW-7" target="0UtFQ7yuSYxmiv--B6kW-9">
          <mxGeometry relative="1" as="geometry" />
        </mxCell>
        <mxCell id="0UtFQ7yuSYxmiv--B6kW-30" style="edgeStyle=orthogonalEdgeStyle;rounded=0;orthogonalLoop=1;jettySize=auto;html=1;exitX=1;exitY=1;exitDx=0;exitDy=0;" edge="1" parent="1" source="0UtFQ7yuSYxmiv--B6kW-7" target="0UtFQ7yuSYxmiv--B6kW-10">
          <mxGeometry relative="1" as="geometry" />
        </mxCell>
        <mxCell id="0UtFQ7yuSYxmiv--B6kW-7" value="Computer=Paper" style="rhombus;whiteSpace=wrap;html=1;" vertex="1" parent="1">
          <mxGeometry x="110" y="330" width="100" height="90" as="geometry" />
        </mxCell>
        <mxCell id="0UtFQ7yuSYxmiv--B6kW-8" value="Tie" style="rounded=1;whiteSpace=wrap;html=1;" vertex="1" parent="1">
          <mxGeometry x="10" y="420" width="60" height="30" as="geometry" />
        </mxCell>
        <mxCell id="0UtFQ7yuSYxmiv--B6kW-9" value="Computer wins" style="rounded=1;whiteSpace=wrap;html=1;" vertex="1" parent="1">
          <mxGeometry x="80" y="480" width="60" height="30" as="geometry" />
        </mxCell>
        <mxCell id="0UtFQ7yuSYxmiv--B6kW-10" value="User wins" style="rounded=1;whiteSpace=wrap;html=1;" vertex="1" parent="1">
          <mxGeometry x="180" y="480" width="60" height="30" as="geometry" />
        </mxCell>
        <mxCell id="0UtFQ7yuSYxmiv--B6kW-33" style="edgeStyle=orthogonalEdgeStyle;rounded=0;orthogonalLoop=1;jettySize=auto;html=1;exitX=0;exitY=1;exitDx=0;exitDy=0;entryX=0.5;entryY=0;entryDx=0;entryDy=0;" edge="1" parent="1" source="0UtFQ7yuSYxmiv--B6kW-11" target="0UtFQ7yuSYxmiv--B6kW-12">
          <mxGeometry relative="1" as="geometry" />
        </mxCell>
        <mxCell id="0UtFQ7yuSYxmiv--B6kW-34" style="edgeStyle=orthogonalEdgeStyle;rounded=0;orthogonalLoop=1;jettySize=auto;html=1;exitX=1;exitY=0.5;exitDx=0;exitDy=0;entryX=0.5;entryY=0;entryDx=0;entryDy=0;" edge="1" parent="1" source="0UtFQ7yuSYxmiv--B6kW-11" target="0UtFQ7yuSYxmiv--B6kW-15">
          <mxGeometry relative="1" as="geometry" />
        </mxCell>
        <mxCell id="0UtFQ7yuSYxmiv--B6kW-11" value="Computer=Rock" style="rhombus;whiteSpace=wrap;html=1;" vertex="1" parent="1">
          <mxGeometry x="200" y="220" width="100" height="90" as="geometry" />
        </mxCell>
        <mxCell id="0UtFQ7yuSYxmiv--B6kW-36" style="edgeStyle=orthogonalEdgeStyle;rounded=0;orthogonalLoop=1;jettySize=auto;html=1;exitX=0;exitY=1;exitDx=0;exitDy=0;entryX=0.387;entryY=0.13;entryDx=0;entryDy=0;entryPerimeter=0;" edge="1" parent="1" source="0UtFQ7yuSYxmiv--B6kW-12" target="0UtFQ7yuSYxmiv--B6kW-13">
          <mxGeometry relative="1" as="geometry" />
        </mxCell>
        <mxCell id="0UtFQ7yuSYxmiv--B6kW-37" style="edgeStyle=orthogonalEdgeStyle;rounded=0;orthogonalLoop=1;jettySize=auto;html=1;exitX=1;exitY=1;exitDx=0;exitDy=0;entryX=0.5;entryY=0;entryDx=0;entryDy=0;" edge="1" parent="1" source="0UtFQ7yuSYxmiv--B6kW-12" target="0UtFQ7yuSYxmiv--B6kW-14">
          <mxGeometry relative="1" as="geometry" />
        </mxCell>
        <mxCell id="0UtFQ7yuSYxmiv--B6kW-12" value="Computer=Paper" style="rhombus;whiteSpace=wrap;html=1;" vertex="1" parent="1">
          <mxGeometry x="230" y="340" width="100" height="100" as="geometry" />
        </mxCell>
        <mxCell id="0UtFQ7yuSYxmiv--B6kW-13" value="Tie" style="rounded=1;whiteSpace=wrap;html=1;" vertex="1" parent="1">
          <mxGeometry x="250" y="485" width="60" height="20" as="geometry" />
        </mxCell>
        <mxCell id="0UtFQ7yuSYxmiv--B6kW-14" value="Computer wins" style="rounded=1;whiteSpace=wrap;html=1;" vertex="1" parent="1">
          <mxGeometry x="330" y="475" width="60" height="35" as="geometry" />
        </mxCell>
        <mxCell id="0UtFQ7yuSYxmiv--B6kW-15" value="User wins" style="rounded=1;whiteSpace=wrap;html=1;" vertex="1" parent="1">
          <mxGeometry x="300" y="310" width="60" height="20" as="geometry" />
        </mxCell>
        <mxCell id="0UtFQ7yuSYxmiv--B6kW-16" value="no selection&amp;nbsp;" style="rounded=1;whiteSpace=wrap;html=1;" vertex="1" parent="1">
          <mxGeometry x="320" y="220" width="60" height="30" as="geometry" />
        </mxCell>
        <mxCell id="0UtFQ7yuSYxmiv--B6kW-39" style="edgeStyle=orthogonalEdgeStyle;rounded=0;orthogonalLoop=1;jettySize=auto;html=1;exitX=0;exitY=1;exitDx=0;exitDy=0;entryX=0.5;entryY=0;entryDx=0;entryDy=0;" edge="1" parent="1" source="0UtFQ7yuSYxmiv--B6kW-17" target="0UtFQ7yuSYxmiv--B6kW-18">
          <mxGeometry relative="1" as="geometry" />
        </mxCell>
        <mxCell id="0UtFQ7yuSYxmiv--B6kW-40" style="edgeStyle=orthogonalEdgeStyle;rounded=0;orthogonalLoop=1;jettySize=auto;html=1;exitX=1;exitY=0.5;exitDx=0;exitDy=0;entryX=0.5;entryY=0;entryDx=0;entryDy=0;" edge="1" parent="1" source="0UtFQ7yuSYxmiv--B6kW-17" target="0UtFQ7yuSYxmiv--B6kW-19">
          <mxGeometry relative="1" as="geometry" />
        </mxCell>
        <mxCell id="0UtFQ7yuSYxmiv--B6kW-17" value="Computer=Rock" style="rhombus;whiteSpace=wrap;html=1;" vertex="1" parent="1">
          <mxGeometry x="440" y="170" width="90" height="90" as="geometry" />
        </mxCell>
        <mxCell id="0UtFQ7yuSYxmiv--B6kW-41" style="edgeStyle=orthogonalEdgeStyle;rounded=0;orthogonalLoop=1;jettySize=auto;html=1;exitX=1;exitY=0.5;exitDx=0;exitDy=0;entryX=0.62;entryY=-0.096;entryDx=0;entryDy=0;entryPerimeter=0;" edge="1" parent="1" source="0UtFQ7yuSYxmiv--B6kW-18" target="0UtFQ7yuSYxmiv--B6kW-21">
          <mxGeometry relative="1" as="geometry" />
        </mxCell>
        <mxCell id="0UtFQ7yuSYxmiv--B6kW-42" style="edgeStyle=orthogonalEdgeStyle;rounded=0;orthogonalLoop=1;jettySize=auto;html=1;exitX=0;exitY=0.5;exitDx=0;exitDy=0;entryX=0.5;entryY=0;entryDx=0;entryDy=0;" edge="1" parent="1" source="0UtFQ7yuSYxmiv--B6kW-18" target="0UtFQ7yuSYxmiv--B6kW-20">
          <mxGeometry relative="1" as="geometry" />
        </mxCell>
        <mxCell id="0UtFQ7yuSYxmiv--B6kW-18" value="Computer=Paper" style="rhombus;whiteSpace=wrap;html=1;" vertex="1" parent="1">
          <mxGeometry x="390" y="290" width="100" height="90" as="geometry" />
        </mxCell>
        <mxCell id="0UtFQ7yuSYxmiv--B6kW-45" style="edgeStyle=orthogonalEdgeStyle;rounded=0;orthogonalLoop=1;jettySize=auto;html=1;exitX=0.5;exitY=1;exitDx=0;exitDy=0;entryX=0.67;entryY=0;entryDx=0;entryDy=0;entryPerimeter=0;" edge="1" parent="1" source="0UtFQ7yuSYxmiv--B6kW-19" target="0UtFQ7yuSYxmiv--B6kW-22">
          <mxGeometry relative="1" as="geometry" />
        </mxCell>
        <mxCell id="0UtFQ7yuSYxmiv--B6kW-19" value="Computer wins" style="rounded=1;whiteSpace=wrap;html=1;" vertex="1" parent="1">
          <mxGeometry x="570" y="250" width="70" height="30" as="geometry" />
        </mxCell>
        <mxCell id="0UtFQ7yuSYxmiv--B6kW-43" style="edgeStyle=orthogonalEdgeStyle;rounded=0;orthogonalLoop=1;jettySize=auto;html=1;exitX=0.5;exitY=1;exitDx=0;exitDy=0;entryX=0.31;entryY=0.013;entryDx=0;entryDy=0;entryPerimeter=0;" edge="1" parent="1" source="0UtFQ7yuSYxmiv--B6kW-20" target="0UtFQ7yuSYxmiv--B6kW-22">
          <mxGeometry relative="1" as="geometry" />
        </mxCell>
        <mxCell id="0UtFQ7yuSYxmiv--B6kW-20" value="User wins" style="rounded=1;whiteSpace=wrap;html=1;" vertex="1" parent="1">
          <mxGeometry x="420" y="450" width="70" height="30" as="geometry" />
        </mxCell>
        <mxCell id="0UtFQ7yuSYxmiv--B6kW-44" style="edgeStyle=orthogonalEdgeStyle;rounded=0;orthogonalLoop=1;jettySize=auto;html=1;exitX=1;exitY=0.25;exitDx=0;exitDy=0;entryX=0.5;entryY=0;entryDx=0;entryDy=0;" edge="1" parent="1" source="0UtFQ7yuSYxmiv--B6kW-21" target="0UtFQ7yuSYxmiv--B6kW-22">
          <mxGeometry relative="1" as="geometry" />
        </mxCell>
        <mxCell id="0UtFQ7yuSYxmiv--B6kW-21" value="Tie" style="rounded=1;whiteSpace=wrap;html=1;" vertex="1" parent="1">
          <mxGeometry x="500" y="410" width="60" height="25" as="geometry" />
        </mxCell>
        <mxCell id="0UtFQ7yuSYxmiv--B6kW-22" value="End" style="rounded=0;whiteSpace=wrap;html=1;" vertex="1" parent="1">
          <mxGeometry x="560" y="530" width="120" height="60" as="geometry" />
        </mxCell>
        <mxCell id="0UtFQ7yuSYxmiv--B6kW-46" value="no" style="text;html=1;strokeColor=none;fillColor=none;align=center;verticalAlign=middle;whiteSpace=wrap;rounded=0;" vertex="1" parent="1">
          <mxGeometry x="130" y="130" width="60" height="40" as="geometry" />
        </mxCell>
        <mxCell id="0UtFQ7yuSYxmiv--B6kW-47" value="no" style="text;html=1;strokeColor=none;fillColor=none;align=center;verticalAlign=middle;whiteSpace=wrap;rounded=0;" vertex="1" parent="1">
          <mxGeometry x="270" y="130" width="60" height="40" as="geometry" />
        </mxCell>
        <mxCell id="0UtFQ7yuSYxmiv--B6kW-49" value="" style="edgeStyle=orthogonalEdgeStyle;rounded=0;orthogonalLoop=1;jettySize=auto;html=1;exitX=1;exitY=0.5;exitDx=0;exitDy=0;entryX=0.5;entryY=0;entryDx=0;entryDy=0;" edge="1" parent="1" source="0UtFQ7yuSYxmiv--B6kW-6" target="0UtFQ7yuSYxmiv--B6kW-7">
          <mxGeometry relative="1" as="geometry">
            <mxPoint x="135" y="295" as="sourcePoint" />
            <mxPoint x="160" y="320" as="targetPoint" />
          </mxGeometry>
        </mxCell>
        <mxCell id="0UtFQ7yuSYxmiv--B6kW-50" value="no" style="text;html=1;strokeColor=none;fillColor=none;align=center;verticalAlign=middle;whiteSpace=wrap;rounded=0;" vertex="1" parent="1">
          <mxGeometry x="170" y="415" width="60" height="40" as="geometry" />
        </mxCell>
        <mxCell id="0UtFQ7yuSYxmiv--B6kW-53" value="yes" style="text;html=1;strokeColor=none;fillColor=none;align=center;verticalAlign=middle;whiteSpace=wrap;rounded=0;" vertex="1" parent="1">
          <mxGeometry x="440" y="120" width="50" height="30" as="geometry" />
        </mxCell>
        <mxCell id="0UtFQ7yuSYxmiv--B6kW-54" value="yes" style="text;html=1;strokeColor=none;fillColor=none;align=center;verticalAlign=middle;whiteSpace=wrap;rounded=0;" vertex="1" parent="1">
          <mxGeometry x="45" y="210" width="50" height="30" as="geometry" />
        </mxCell>
        <mxCell id="0UtFQ7yuSYxmiv--B6kW-55" value="yes" style="text;html=1;strokeColor=none;fillColor=none;align=center;verticalAlign=middle;whiteSpace=wrap;rounded=0;" vertex="1" parent="1">
          <mxGeometry x="30" y="350" width="50" height="30" as="geometry" />
        </mxCell>
        <mxCell id="0UtFQ7yuSYxmiv--B6kW-56" value="yes" style="text;html=1;strokeColor=none;fillColor=none;align=center;verticalAlign=middle;whiteSpace=wrap;rounded=0;" vertex="1" parent="1">
          <mxGeometry x="80" y="425" width="50" height="30" as="geometry" />
        </mxCell>
        <mxCell id="0UtFQ7yuSYxmiv--B6kW-58" value="no" style="text;html=1;strokeColor=none;fillColor=none;align=center;verticalAlign=middle;whiteSpace=wrap;rounded=0;" vertex="1" parent="1">
          <mxGeometry x="120" y="260" width="60" height="30" as="geometry" />
        </mxCell>
        <mxCell id="0UtFQ7yuSYxmiv--B6kW-59" value="yes" style="text;html=1;strokeColor=none;fillColor=none;align=center;verticalAlign=middle;whiteSpace=wrap;rounded=0;" vertex="1" parent="1">
          <mxGeometry x="250" y="435" width="50" height="30" as="geometry" />
        </mxCell>
        <mxCell id="0UtFQ7yuSYxmiv--B6kW-60" value="no" style="text;html=1;strokeColor=none;fillColor=none;align=center;verticalAlign=middle;whiteSpace=wrap;rounded=0;" vertex="1" parent="1">
          <mxGeometry x="300" y="430" width="60" height="40" as="geometry" />
        </mxCell>
        <mxCell id="0UtFQ7yuSYxmiv--B6kW-61" value="yes" style="text;html=1;strokeColor=none;fillColor=none;align=center;verticalAlign=middle;whiteSpace=wrap;rounded=0;" vertex="1" parent="1">
          <mxGeometry x="220" y="305" width="50" height="30" as="geometry" />
        </mxCell>
        <mxCell id="0UtFQ7yuSYxmiv--B6kW-62" value="yes" style="text;html=1;strokeColor=none;fillColor=none;align=center;verticalAlign=middle;whiteSpace=wrap;rounded=0;" vertex="1" parent="1">
          <mxGeometry x="240" y="180" width="50" height="30" as="geometry" />
        </mxCell>
        <mxCell id="0UtFQ7yuSYxmiv--B6kW-63" value="yes" style="text;html=1;strokeColor=none;fillColor=none;align=center;verticalAlign=middle;whiteSpace=wrap;rounded=0;" vertex="1" parent="1">
          <mxGeometry x="320" y="260" width="50" height="30" as="geometry" />
        </mxCell>
        <mxCell id="0UtFQ7yuSYxmiv--B6kW-64" value="no" style="text;html=1;strokeColor=none;fillColor=none;align=center;verticalAlign=middle;whiteSpace=wrap;rounded=0;" vertex="1" parent="1">
          <mxGeometry x="310" y="160" width="60" height="40" as="geometry" />
        </mxCell>
        <mxCell id="0UtFQ7yuSYxmiv--B6kW-65" style="edgeStyle=orthogonalEdgeStyle;rounded=0;orthogonalLoop=1;jettySize=auto;html=1;exitX=0;exitY=0;exitDx=0;exitDy=0;entryX=0;entryY=-0.25;entryDx=0;entryDy=0;entryPerimeter=0;" edge="1" parent="1" source="0UtFQ7yuSYxmiv--B6kW-64" target="0UtFQ7yuSYxmiv--B6kW-64">
          <mxGeometry relative="1" as="geometry" />
        </mxCell>
        <mxCell id="0UtFQ7yuSYxmiv--B6kW-66" value="no" style="text;html=1;strokeColor=none;fillColor=none;align=center;verticalAlign=middle;whiteSpace=wrap;rounded=0;" vertex="1" parent="1">
          <mxGeometry x="420" y="250" width="60" height="40" as="geometry" />
        </mxCell>
        <mxCell id="0UtFQ7yuSYxmiv--B6kW-67" value="yes" style="text;html=1;strokeColor=none;fillColor=none;align=center;verticalAlign=middle;whiteSpace=wrap;rounded=0;" vertex="1" parent="1">
          <mxGeometry x="370" y="390" width="50" height="30" as="geometry" />
        </mxCell>
        <mxCell id="0UtFQ7yuSYxmiv--B6kW-68" value="no" style="text;html=1;strokeColor=none;fillColor=none;align=center;verticalAlign=middle;whiteSpace=wrap;rounded=0;" vertex="1" parent="1">
          <mxGeometry x="470" y="305" width="60" height="40" as="geometry" />
        </mxCell>
        <mxCell id="0UtFQ7yuSYxmiv--B6kW-69" value="yes" style="text;html=1;strokeColor=none;fillColor=none;align=center;verticalAlign=middle;whiteSpace=wrap;rounded=0;" vertex="1" parent="1">
          <mxGeometry x="595" y="190" width="50" height="30" as="geometry" />
        </mxCell>
        <mxCell id="0UtFQ7yuSYxmiv--B6kW-71" value="&lt;h1&gt;Group 8&lt;/h1&gt;" style="text;html=1;strokeColor=none;fillColor=none;spacing=5;spacingTop=-20;whiteSpace=wrap;overflow=hidden;rounded=0;" vertex="1" parent="1">
          <mxGeometry x="650" y="10" width="190" height="120" as="geometry" />
        </mxCell>
      </root>
    </mxGraphModel>
  </diagram>
</mxfile>
